<?xml version="1.0" standalone="no"?>
<!DOCTYPE svg PUBLIC "-//W3C//DTD SVG 20010904//EN"
 "http://www.w3.org/TR/2001/REC-SVG-20010904/DTD/svg10.dtd">
<svg version="1.0" xmlns="http://www.w3.org/2000/svg"
 width="547.000000pt" height="547.000000pt" viewBox="0 0 547.000000 547.000000"
 preserveAspectRatio="xMidYMid meet">
<metadata>
Created by potrace 1.14, written by Peter Selinger 2001-2017
</metadata>
<g transform="translate(0.000000,547.000000) scale(0.100000,-0.100000)"
fill="#000000" stroke="none">
<path d="M2240 3657 c-56 -10 -65 -15 -68 -35 -3 -22 -1 -22 51 -16 l55 7 1
-404 c0 -222 -2 -418 -5 -436 -6 -30 -9 -32 -53 -36 -25 -2 26 -3 114 -4 88 0
138 3 110 6 l-50 6 -3 437 -2 437 22 3 c41 6 143 -10 199 -31 112 -42 179
-129 179 -231 0 -137 -129 -251 -303 -267 -52 -5 -58 -8 -55 -27 3 -18 12 -22
59 -27 127 -14 187 -72 235 -228 35 -114 55 -152 104 -194 71 -60 175 -73 263
-31 37 18 55 54 20 38 -10 -4 -42 -10 -71 -12 -50 -4 -54 -2 -91 35 -33 32
-45 57 -75 155 -20 65 -49 133 -65 155 -28 38 -111 103 -132 103 -25 0 -3 18
60 48 76 37 149 102 177 159 26 53 25 145 -3 198 -44 84 -136 146 -263 179
-84 22 -322 30 -410 13z"/>
<path d="M2950 3661 c0 -6 21 -11 48 -13 l47 -3 3 -276 2 -276 -112 -6 c-62
-4 -138 -7 -168 -8 -30 -1 -47 -3 -37 -6 9 -2 17 -9 17 -13 0 -5 66 -11 148
-12 l147 -3 3 -157 3 -158 107 2 c59 1 86 3 60 5 -33 3 -48 9 -50 20 -2 9 -2
214 0 455 l2 438 45 0 c25 0 45 5 45 10 0 6 -58 10 -155 10 -91 0 -155 -4
-155 -9z"/>
<path d="M865 2320 l0 -130 35 0 35 0 -3 50 -4 50 35 0 c29 0 38 -6 61 -40 14
-22 26 -44 26 -50 0 -5 18 -10 40 -10 22 0 40 2 40 5 0 3 -16 26 -36 52 l-36
47 27 13 c35 19 49 57 33 91 -20 41 -53 52 -158 52 l-95 0 0 -130z m193 53 c4
-28 -32 -45 -81 -39 -18 3 -35 5 -39 5 -5 1 -8 15 -8 31 l0 31 63 -3 c56 -3
62 -5 65 -25z"/>
<path d="M2375 2320 l0 -130 33 0 32 0 0 55 0 55 76 0 76 0 -4 -55 -3 -55 33
0 32 0 0 130 0 130 -34 0 -33 0 5 -50 5 -50 -77 0 -76 0 0 50 c0 50 0 50 -32
50 l-33 0 0 -130z"/>
<path d="M3160 2388 c0 -20 5 -27 18 -26 64 5 64 5 60 -87 l-3 -85 30 0 30 0
0 87 0 88 38 -2 c34 -2 37 0 37 25 l0 27 -105 0 -105 0 0 -27z"/>
<path d="M1224 2396 c-43 -19 -64 -53 -64 -102 0 -30 7 -48 24 -67 30 -32 62
-41 127 -35 59 6 96 35 105 86 18 95 -91 162 -192 118z m100 -37 c13 -7 30
-25 37 -41 17 -42 -13 -82 -66 -86 -74 -6 -114 73 -59 117 30 24 52 26 88 10z"/>
<path d="M1460 2408 c0 -2 -2 -51 -3 -111 l-2 -107 25 0 c24 0 25 1 22 66 -2
37 0 64 5 61 5 -3 22 -33 37 -66 16 -33 33 -58 38 -55 5 3 23 33 41 67 l32 62
3 -67 c3 -65 4 -68 27 -68 l25 0 0 110 0 110 -29 0 c-26 0 -33 -7 -63 -65 -18
-36 -35 -65 -38 -65 -3 0 -20 29 -38 65 -26 54 -36 65 -57 65 -14 0 -25 -1
-25 -2z"/>
<path d="M1770 2408 c0 -2 -2 -51 -3 -111 l-2 -107 98 0 c94 0 97 1 97 23 0
21 -3 22 -70 19 -69 -4 -70 -3 -70 22 0 25 3 26 51 26 46 0 50 2 47 22 -3 20
-8 22 -50 19 -46 -2 -48 -1 -48 24 l0 27 70 -4 c67 -4 70 -3 70 19 0 22 -3 23
-95 23 -52 0 -95 -1 -95 -2z"/>
<path d="M2040 2392 c-66 -33 -80 -109 -31 -164 28 -31 33 -33 101 -33 68 0
73 2 101 33 90 100 -43 229 -171 164z m133 -53 c57 -69 -53 -150 -120 -87 -25
23 -29 48 -12 79 23 43 99 47 132 8z"/>
<path d="M2715 2300 l0 -110 98 0 c57 0 98 4 99 10 4 32 2 33 -69 31 -72 -2
-73 -2 -73 23 0 24 3 26 50 26 46 0 50 2 50 24 0 22 -3 23 -50 18 -48 -4 -50
-4 -50 21 0 25 1 25 70 23 67 -1 70 0 70 21 0 22 -3 23 -97 23 l-98 0 0 -110z"/>
<path d="M3018 2380 c-5 -17 -27 -66 -49 -110 l-38 -80 34 0 c23 0 33 4 30 13
-10 27 11 38 66 35 47 -3 54 -6 57 -25 3 -19 10 -23 38 -23 l34 0 -44 93 c-25
50 -47 100 -50 110 -4 11 -16 17 -36 17 -26 0 -33 -5 -42 -30z m62 -87 c0 -7
-11 -13 -25 -13 -28 0 -30 8 -13 45 l12 26 13 -23 c7 -13 12 -29 13 -35z"/>
<path d="M3405 2300 l0 -110 28 0 c25 0 27 3 27 45 l0 45 60 0 60 0 0 -45 c0
-42 2 -45 28 -45 l27 0 -2 107 c-2 108 -2 108 -27 111 -25 3 -26 1 -26 -42 l0
-46 -60 0 -60 0 0 45 c0 42 -2 45 -27 45 l-28 0 0 -110z"/>
<path d="M3690 2300 l0 -110 100 0 c97 0 100 1 100 23 0 22 -3 22 -75 19 l-75
-4 0 26 c0 25 3 26 50 26 46 0 50 2 50 24 0 22 -3 23 -51 18 -49 -5 -51 -4
-47 19 3 23 7 24 71 24 63 0 67 1 67 23 0 21 -3 22 -95 22 l-95 0 0 -110z"/>
<path d="M3930 2408 c-1 -1 -2 -51 -3 -111 l-2 -107 30 0 c30 0 30 1 27 40 -4
40 -4 40 31 40 36 0 67 -30 67 -65 0 -11 11 -15 40 -15 l40 0 -30 41 -30 42
25 23 c31 28 32 64 4 90 -17 15 -40 20 -110 22 -49 2 -89 2 -89 0z m162 -56
c18 -18 -3 -33 -56 -39 -47 -6 -65 8 -53 41 7 16 92 15 109 -2z"/>
<path d="M4195 2300 l0 -110 103 0 c99 0 102 1 102 23 0 21 -3 22 -76 19 l-75
-4 2 89 2 88 -29 3 -29 3 0 -111z"/>
<path d="M4370 2405 c0 -3 23 -34 51 -67 48 -57 51 -65 46 -105 -4 -42 -4 -43
24 -43 28 0 29 2 29 46 0 39 7 54 45 104 25 32 45 61 45 64 0 3 -14 6 -30 6
-22 0 -33 -6 -40 -22 -5 -13 -17 -33 -27 -46 l-19 -23 -20 28 c-11 15 -23 36
-27 46 -4 12 -17 17 -42 17 -19 0 -35 -2 -35 -5z"/>
<path d="M870 1930 l0 -110 25 0 25 0 0 110 0 110 -25 0 -25 0 0 -110z"/>
<path d="M2976 2019 c-30 -24 -35 -69 -10 -90 9 -7 43 -16 76 -20 71 -8 92
-23 64 -45 -25 -18 -67 -18 -111 0 -30 13 -34 13 -40 -1 -9 -26 10 -36 75 -41
95 -7 140 23 128 84 -4 25 -45 44 -94 44 -48 0 -85 22 -67 41 17 17 88 15 116
-4 23 -15 25 -14 35 8 10 22 8 24 -33 34 -66 17 -109 14 -139 -10z"/>
<path d="M4288 2003 l-78 -4 0 -89 0 -90 85 0 c69 0 85 3 85 15 0 12 -14 15
-65 15 -63 0 -65 1 -65 25 0 23 4 25 45 25 33 0 45 4 45 15 0 11 -12 15 -45
15 -38 0 -45 3 -45 20 0 18 7 20 60 20 53 0 60 2 60 20 0 11 -1 19 -2 18 -2
-1 -38 -4 -80 -5z"/>
<path d="M985 1910 c0 -79 2 -90 18 -90 14 0 17 10 17 68 l1 67 64 -67 c90
-94 100 -92 100 22 0 83 -1 90 -20 90 -18 0 -20 -6 -17 -62 l3 -63 -61 63
c-38 38 -70 62 -83 62 -21 0 -22 -5 -22 -90z"/>
<path d="M1247 1983 c-37 -42 -17 -72 59 -87 40 -8 59 -17 59 -26 0 -22 -82
-26 -105 -5 -17 15 -19 15 -25 -5 -4 -12 -5 -24 -2 -27 3 -2 33 -7 66 -10 71
-7 111 12 111 51 0 32 -17 44 -80 56 -60 11 -65 14 -55 29 9 15 88 14 103 -1
10 -10 15 -10 22 2 15 24 -5 34 -73 38 -52 3 -65 1 -80 -15z"/>
<path d="M1458 1925 c4 -90 18 -105 97 -105 79 0 93 15 97 105 3 69 2 75 -17
75 -18 0 -20 -6 -17 -54 5 -73 -9 -96 -56 -96 -55 0 -62 9 -65 83 -2 59 -4 67
-22 67 -19 0 -20 -5 -17 -75z"/>
<path d="M1710 1910 c0 -83 1 -90 20 -90 16 0 20 7 20 35 0 32 2 35 30 35 23
0 35 -8 52 -35 15 -23 31 -35 46 -35 l23 0 -20 29 c-26 36 -26 43 -1 66 11 10
20 24 20 32 0 7 -9 22 -20 33 -16 16 -33 20 -95 20 l-75 0 0 -90z m145 50 c13
-21 -17 -40 -61 -40 -40 0 -44 2 -44 25 0 23 3 25 49 25 28 0 53 -5 56 -10z"/>
<path d="M1973 1910 l-41 -90 24 0 c13 0 23 3 23 8 -4 27 4 32 52 32 42 0 52
-3 56 -20 3 -13 14 -20 29 -20 13 0 24 2 24 4 0 2 -19 43 -41 90 -57 118 -71
117 -126 -4z m87 -7 c0 -7 -11 -13 -25 -13 -28 0 -32 18 -14 52 11 21 12 21
25 -3 7 -13 13 -30 14 -36z"/>
<path d="M2180 1910 c0 -81 2 -90 18 -90 17 0 19 8 17 60 -1 33 1 60 5 60 4 0
33 -27 64 -60 32 -33 66 -60 77 -60 17 0 19 8 19 90 0 83 -1 90 -20 90 -18 0
-20 -7 -20 -62 l-1 -63 -57 63 c-38 42 -64 62 -79 62 -22 0 -23 -3 -23 -90z"/>
<path d="M2465 1989 c-33 -19 -45 -41 -45 -80 0 -55 26 -81 88 -87 30 -2 64 1
82 8 25 10 28 15 19 32 -10 18 -12 19 -29 3 -25 -23 -90 -22 -107 1 -16 22
-17 76 -1 92 15 15 90 16 104 2 8 -8 15 -6 24 5 7 8 10 18 6 22 -12 12 -121
14 -141 2z"/>
<path d="M2655 1910 l0 -90 83 0 c66 0 82 3 82 15 0 12 -13 15 -60 15 -57 0
-60 1 -60 25 0 23 4 25 40 25 28 0 40 4 40 14 0 10 -14 16 -42 18 -30 2 -43 8
-43 18 0 11 15 16 63 18 46 2 62 7 62 17 0 12 -17 15 -82 15 l-83 0 0 -90z"/>
<path d="M3220 1910 l0 -90 80 0 c64 0 80 3 80 15 0 12 -13 15 -60 15 -57 0
-60 1 -60 25 0 23 4 25 40 25 29 0 40 4 40 15 0 11 -11 15 -40 15 -33 0 -40 3
-40 20 0 18 7 20 60 20 47 0 60 3 60 15 0 12 -16 15 -80 15 l-80 0 0 -90z"/>
<path d="M3430 1910 c0 -83 1 -90 20 -90 16 0 20 7 20 35 0 32 2 35 30 35 24
0 35 -7 51 -35 15 -24 28 -35 45 -35 l23 0 -24 35 -24 36 25 24 c29 29 30 39
4 65 -16 16 -33 20 -95 20 l-75 0 0 -90z m145 50 c13 -21 -17 -40 -61 -40 -40
0 -44 2 -44 25 0 23 3 25 49 25 28 0 53 -5 56 -10z"/>
<path d="M3640 1996 c0 -2 16 -37 35 -77 19 -41 35 -79 35 -86 0 -8 12 -13 28
-13 24 1 30 8 60 78 18 42 36 83 39 90 3 7 -3 12 -15 12 -15 0 -27 -16 -48
-66 -25 -60 -29 -64 -41 -47 -8 10 -22 39 -31 66 -13 37 -21 47 -39 47 -13 0
-23 -2 -23 -4z"/>
<path d="M3888 1910 c3 -81 5 -90 23 -90 17 0 19 8 19 90 0 87 -1 90 -22 90
-22 0 -23 -2 -20 -90z"/>
<path d="M3999 1971 c-20 -20 -29 -39 -29 -61 0 -47 47 -90 98 -90 41 0 102
17 102 29 0 4 -5 12 -11 18 -9 9 -15 8 -26 -3 -24 -23 -77 -22 -105 3 -24 21
-23 66 2 88 18 16 62 18 109 4 8 -2 16 3 18 12 5 19 -23 29 -85 29 -35 0 -49
-6 -73 -29z"/>
<path d="M4426 1978 c-31 -44 -12 -67 68 -83 34 -7 51 -15 51 -25 0 -22 -82
-26 -105 -5 -17 15 -19 15 -25 -5 -4 -12 -5 -24 -2 -27 3 -2 33 -7 66 -10 71
-7 111 12 111 51 0 32 -19 45 -79 55 -58 9 -70 16 -54 32 11 11 75 8 104 -5
11 -5 19 -2 23 9 8 21 -30 35 -94 35 -39 0 -52 -4 -64 -22z"/>
</g>
</svg>
